<svg width="491.25" height="640"  viewbox="0 0 102 102" xmlns="http://www.w3.org/2000/svg">
 <metadata id="metadata8">image/svg+xml</metadata>
 <defs>
 
  <clipPath clipPathUnits="userSpaceOnUse" id="clipPath16">
   <path d="m280.25,335.25l-2.75,0l-6.83301,-12.25l-7,1.83301l-20.91699,-6.58301l-7.58299,5.75l-0.33401,11.33301l-6.83299,-5.83301l-8,4l0,-6l5.33299,-2.66699l-8.33299,-9.66602l-7.83299,0l-6.66701,6.33301l-7,0.33301l-0.5,-8.5l4.33299,-4.66602l-3.83299,-15.66699l-6.66701,0.16699l-8.83299,-6.66699l-1,-11.16699l5.5,-6.27802l8.25,2.44501l3.25,-7.33301l13,4.888l7,0l3.5,-13.55499l19,-6l3,-9l7.5,-0.875l5,-10.625l-2.83299,-8.83299l3.5,-4.5l0.16599,-5.33401l9.16701,0.16701l9,-11.5l-0.5,-8l4,-4.5l-11.66699,-16.66701l19.83398,-12.5l10.33301,18.66701l0,15.5l18,12.5l11,0l8,14.5l1.75,27.5l-4,5l19.75,18.05499l0,19.94501l-27.5,13l-28.5,9l-16,2l4,7l-1.25,15.25z" id="path18"/>
  </clipPath>
  <linearGradient x1="0.49893" y1="0.92669" x2="0.50348" y2="-0.03117" spreadMethod="pad" id="linearGradient24">
   <stop stop-color="#b6c134" offset="0" id="stop26"/>
   <stop stop-color="#8d9538" offset="1" id="stop28"/>
  </linearGradient>
  <clipPath clipPathUnits="userSpaceOnUse" id="clipPath36">
   <path d="m0,520l393,0l0,-520l-393,0l0,520z" id="path38"/>
  </clipPath>
  <clipPath clipPathUnits="userSpaceOnUse" id="clipPath44">
   <path d="m260.5,168.75l23.25,0l0,-25.58299l-23.25,0l0,25.58299z" id="path46"/>
  </clipPath>
  <clipPath clipPathUnits="userSpaceOnUse" id="clipPath60">
   <path d="m0,520l393,0l0,-520l-393,0l0,520z" id="path62"/>
  </clipPath>
  <clipPath clipPathUnits="userSpaceOnUse" id="clipPath68">
   <path d="m205.25,206.75l68.75,0l0,-163l-68.75,0l0,163z" id="path70"/>
  </clipPath>
  <clipPath clipPathUnits="userSpaceOnUse" id="clipPath84">
   <path d="m234.25,42.9583l25.875,0l0,-16.4563l-25.875,0l0,16.4563z" id="path86"/>
  </clipPath>
  <clipPath clipPathUnits="userSpaceOnUse" id="clipPath100">
   <path d="m0,520l393,0l0,-520l-393,0l0,520z" id="path102"/>
  </clipPath>
  <clipPath clipPathUnits="userSpaceOnUse" id="clipPath108">
   <path d="m198.25,261.75l0,0l0,0l0,0z" id="path110"/>
  </clipPath>
  <clipPath clipPathUnits="userSpaceOnUse" id="clipPath120">
   <path d="m197.5,266.5l54.46899,0l0,-63l-54.46899,0l0,63z" id="path122"/>
  </clipPath>
  <clipPath clipPathUnits="userSpaceOnUse" id="clipPath136">
   <path d="m0,520l393,0l0,-520l-393,0l0,520z" id="path138"/>
  </clipPath>
  <clipPath clipPathUnits="userSpaceOnUse" id="clipPath144">
   <path d="m233.25,219.33299l37.91699,0l0,-35.83301l-37.91699,0l0,35.83301z" id="path146"/>
  </clipPath>
  <clipPath clipPathUnits="userSpaceOnUse" id="clipPath160">
   <path d="m0,520l393,0l0,-520l-393,0l0,520z" id="path162"/>
  </clipPath>
  <clipPath clipPathUnits="userSpaceOnUse" id="clipPath168">
   <path d="m182.5,374.16699l55.16701,0l0,-57l-55.16701,0l0,57z" id="path170"/>
  </clipPath>
  <clipPath clipPathUnits="userSpaceOnUse" id="clipPath184">
   <path d="m0,520l393,0l0,-520l-393,0l0,520z" id="path186"/>
  </clipPath>
  <clipPath clipPathUnits="userSpaceOnUse" id="clipPath192">
   <path d="m154.16701,376.66699l47.83301,0l0,-81.16699l-47.83301,0l0,81.16699z" id="path194"/>
  </clipPath>
  <clipPath clipPathUnits="userSpaceOnUse" id="clipPath208">
   <path d="m0,520l393,0l0,-520l-393,0l0,520z" id="path210"/>
  </clipPath>
  <clipPath clipPathUnits="userSpaceOnUse" id="clipPath216">
   <path d="m136.25,364.375l27,0l0,-13.737l-27,0l0,13.737z" id="path218"/>
  </clipPath>
  <clipPath clipPathUnits="userSpaceOnUse" id="clipPath232">
   <path d="m0,520l393,0l0,-520l-393,0l0,520z" id="path234"/>
  </clipPath>
  <clipPath clipPathUnits="userSpaceOnUse" id="clipPath240">
   <path d="m122,368.33301l15.66701,0l0,-14.33301l-15.66701,0l0,14.33301z" id="path242"/>
  </clipPath>
  <clipPath clipPathUnits="userSpaceOnUse" id="clipPath256">
   <path d="m0,520l393,0l0,-520l-393,0l0,520z" id="path258"/>
  </clipPath>
  <clipPath clipPathUnits="userSpaceOnUse" id="clipPath264">
   <path d="m119,387.66699l18.5,0l0,-17.79199l-18.5,0l0,17.79199z" id="path266"/>
  </clipPath>
  <clipPath clipPathUnits="userSpaceOnUse" id="clipPath280">
   <path d="m0,520l393,0l0,-520l-393,0l0,520z" id="path282"/>
  </clipPath>
  <clipPath clipPathUnits="userSpaceOnUse" id="clipPath288">
   <path d="m113,394.125l24,0l0,-17.45801l-24,0l0,17.45801z" id="path290"/>
  </clipPath>
  <clipPath clipPathUnits="userSpaceOnUse" id="clipPath304">
   <path d="m0,520l393,0l0,-520l-393,0l0,520z" id="path306"/>
  </clipPath>
  <clipPath clipPathUnits="userSpaceOnUse" id="clipPath312">
   <path d="m108,385.396l7.167,0l0,-7.20898l-7.167,0l0,7.20898z" id="path314"/>
  </clipPath>
  <clipPath clipPathUnits="userSpaceOnUse" id="clipPath328">
   <path d="m0,520l393,0l0,-520l-393,0l0,520z" id="path330"/>
  </clipPath>
  <clipPath clipPathUnits="userSpaceOnUse" id="clipPath336">
   <path d="m97.625,404l18.875,0l0,-21.625l-18.875,0l0,21.625z" id="path338"/>
  </clipPath>
  <clipPath clipPathUnits="userSpaceOnUse" id="clipPath352">
   <path d="m0,520l393,0l0,-520l-393,0l0,520z" id="path354"/>
  </clipPath>
  <clipPath clipPathUnits="userSpaceOnUse" id="clipPath360">
   <path d="m112.187,406.06201l6.813,0l0,-8.18701l-6.813,0l0,8.18701z" id="path362"/>
  </clipPath>
  <clipPath clipPathUnits="userSpaceOnUse" id="clipPath376">
   <path d="m0,520l393,0l0,-520l-393,0l0,520z" id="path378"/>
  </clipPath>
  <clipPath clipPathUnits="userSpaceOnUse" id="clipPath384">
   <path d="m7,493.10999l120.167,0l0,-102.77701l-120.167,0l0,102.77701z" id="path386"/>
  </clipPath>
  <clipPath clipPathUnits="userSpaceOnUse" id="clipPath400">
   <path d="m0,520l393,0l0,-520l-393,0l0,520z" id="path402"/>
  </clipPath>
  <clipPath clipPathUnits="userSpaceOnUse" id="clipPath408">
   <path d="m143.66701,320.25l23.666,0l0,-28.08301l-23.666,0l0,28.08301z" id="path410"/>
  </clipPath>
  <clipPath clipPathUnits="userSpaceOnUse" id="clipPath424">
   <path d="m0,520l393,0l0,-520l-393,0l0,520z" id="path426"/>
  </clipPath>
  <clipPath clipPathUnits="userSpaceOnUse" id="clipPath432">
   <path d="m141.5,310.75l59.125,0l0,-86.375l-59.125,0l0,86.375z" id="path434"/>
  </clipPath>
  <clipPath clipPathUnits="userSpaceOnUse" id="clipPath448">
   <path d="m0,520l393,0l0,-520l-393,0l0,520z" id="path450"/>
  </clipPath>
  <clipPath clipPathUnits="userSpaceOnUse" id="clipPath456">
   <path d="m196.25,225.125l40.25,0l0,-194.75l-40.25,0l0,194.75z" id="path458"/>
  </clipPath>
  <clipPath clipPathUnits="userSpaceOnUse" id="clipPath472">
   <path d="m200.5,101.875l5.5,0l0,-9.375l-5.5,0l0,9.375z" id="path474"/>
  </clipPath>
  <clipPath clipPathUnits="userSpaceOnUse" id="clipPath488">
   <path d="m0,520l393,0l0,-520l-393,0l0,520z" id="path490"/>
  </clipPath>
  <clipPath clipPathUnits="userSpaceOnUse" id="clipPath496">
   <path d="m137.125,431.375l43.32201,0l0,-20.5l-43.32201,0l0,20.5z" id="path498"/>
  </clipPath>
  <clipPath clipPathUnits="userSpaceOnUse" id="clipPath512">
   <path d="m178.75,414.875l27,0l0,-14.5l-27,0l0,14.5z" id="path514"/>
  </clipPath>
  <clipPath clipPathUnits="userSpaceOnUse" id="clipPath528">
   <path d="m209.125,407l8.5,0l0,-5.03101l-8.5,0l0,5.03101z" id="path530"/>
  </clipPath>
  <clipPath clipPathUnits="userSpaceOnUse" id="clipPath544">
   <path d="m160.125,407.625l9.625,0l0,-5.65601l-9.625,0l0,5.65601z" id="path546"/>
  </clipPath>
  <clipPath clipPathUnits="userSpaceOnUse" id="clipPath560">
   <path d="m164.938,440.5l4.812,0l0,-6.125l-4.812,0l0,6.125z" id="path562"/>
  </clipPath>
  <clipPath clipPathUnits="userSpaceOnUse" id="clipPath576">
   <path d="m168.5,451.25l8,0l0,-7.125l-8,0l0,7.125z" id="path578"/>
  </clipPath>
  <clipPath clipPathUnits="userSpaceOnUse" id="clipPath592">
   <path d="m172.964,442.25l6.536,0l0,-7.875l-6.536,0l0,7.875z" id="path594"/>
  </clipPath>
  <clipPath clipPathUnits="userSpaceOnUse" id="clipPath608">
   <path d="m168.5,434.375l5.625,0l0,-6.125l-5.625,0l0,6.125z" id="path610"/>
  </clipPath>
  <clipPath clipPathUnits="userSpaceOnUse" id="clipPath624">
   <path d="m177.25,431.375l5.5,0l0,-5.125l-5.5,0l0,5.125z" id="path626"/>
  </clipPath>
  <clipPath clipPathUnits="userSpaceOnUse" id="clipPath640">
   <path d="m263.875,342l11.625,0l0,-17l-11.625,0l0,17z" id="path642"/>
  </clipPath>
  <clipPath clipPathUnits="userSpaceOnUse" id="clipPath656">
   <path d="m247.66701,343.25l17.58299,0l0,-19.75l-17.58299,0l0,19.75z" id="path658"/>
  </clipPath>
  <clipPath clipPathUnits="userSpaceOnUse" id="clipPath672">
   <path d="m233.66701,352.5l17.08301,0l0,-32.25l-17.08301,0l0,32.25z" id="path674"/>
  </clipPath>
  <clipPath clipPathUnits="userSpaceOnUse" id="clipPath688">
   <path d="m0,520l393,0l0,-520l-393,0l0,520z" id="path690"/>onmouseover
  </clipPath>
 </defs>
 <g  fill="opacity(0.5)">
  <title>Layer 1</title>
  <g transform="matrix(1.25,0,0,-1.25,0,650) " id="brasil" onmouseout="evt.target.setAttribute('fill', '#909090');" onmouseover="evt.target.setAttribute('fill','url(#linearGradient24)');" >
   <g id="g14" clip-path="url(#clipPath16)">
    <g id="g20">
     <g id="g22">
      <path fill="#909090" fill-rule="nonzero"  d="m280.25,335.25l-2.75,0l-6.83301,-12.25l-7,1.83301l-20.91699,-6.58301l-7.58299,5.75l-0.33401,11.33301l-6.83299,-5.83301l-8,4l0,-6l5.33299,-2.66699l-8.33299,-9.66602l-7.83299,0l-6.66701,6.33301l-7,0.33301l-0.5,-8.5l4.33299,-4.66602l-3.83299,-15.66699l-6.66701,0.16699l-8.83299,-6.66699l-1,-11.16699l5.5,-6.27802l8.25,2.44501l3.25,-7.33301l13,4.888l7,0l3.5,-13.55499l19,-6l3,-9l7.5,-0.875l5,-10.625l-2.83299,-8.83299l3.5,-4.5l0.16599,-5.33401l9.16701,0.16701l9,-11.5l-0.5,-8l4,-4.5l-11.66699,-16.66701l19.83398,-12.5l10.33301,18.66701l0,15.5l18,12.5l11,0l8,14.5l1.75,27.5l-4,5l19.75,18.05499l0,19.94501l-27.5,13l-28.5,9l-16,2l4,7l-1.25,15.25z" id="path30"/>
     </g>
    </g>
   </g>
  </g>
  <g transform="matrix(1.25,0,0,-1.25,0,650) " id="g32">
   <g id="g34" clip-path="url(#clipPath36)">
    <g id="g40">
     <g id="g42"/>
     <g id="g48">
      <g  clip-path="url(#clipPath44)" id="g50">
       <g id="g52">
        <path fill="#909090" fill-rule="nonzero" d="m263.875,168.75l-3.375,-2.25l0.83301,-17.5l9.33398,-5.83301l13.08301,12.95801l-19.875,12.625z" id="path54"/>
       </g>
      </g>
     </g>
    </g>
   </g>
  </g>
  <g transform="matrix(1.25,0,0,-1.25,0,650) " id="g56">
   <g id="g58" clip-path="url(#clipPath60)">
    <g id="g64">
     <g id="g66"/>
     <g id="g72">
      <g  clip-path="url(#clipPath68)" id="g74">
       <g id="g76">
        <path fill="#909090" fill-rule="nonzero" d="m271.33331,189l2.66699,-2.5l-9.83398,-14.66699l-5.5,-4.33301l0.47501,-19.52l10.10898,-11.98l-5.375,-11.25l-7.375,-4.5l-6.75,0l1,-10.25l-8.75,-3.5l1.75,-9.25l-6.25,-18l7,-6.25l-5.25,-13.5l-5.75,-7.5l3.75,-7l-8.75,-1.25l-6.5,7.5l-1.75,30l-11,42.25l3.5,18.5l-7.5,21.5l3.75,28l5.25,5.75l-1,5.25l5,4.25l13.25,0l6.66602,-10.08301l9.83398,1.08301l7.25,-5l-2.5,-3.5l0.5,-7.75l13.08301,0.33301l5,7.16699z" id="path78"/>
       </g>
      </g>
     </g>
    </g>
    <g id="g80">
     <g id="g82"/>
     <g id="g88">
      <g  clip-path="url(#clipPath84)" id="g90">
       <g id="g92">
        <path fill="#909090" fill-rule="nonzero" d="m240.75,42.9583l5.75,-6.125l6,-4.125l7.625,-1.375l-4.625,-4.831l-8.375,0l-0.5,9.331l-0.625,0.25l-0.125,-9.581l-11.625,1.331l0,1.5l6.5,13.625z" id="path94"/>
       </g>
      </g>
     </g>
    </g>
   </g>
  </g>
  <g transform="matrix(1.25,0,0,-1.25,0,650) " id="bolivia">
   <g id="g98" clip-path="url(#clipPath100)">
    <g id="g104">
     <g id="g106"/>
     <g id="g112">
      <g  clip-path="url(#clipPath108)" id="g114"/>
     </g>
    </g>
    <g id="g116">
     <g id="g118"/>
     <g id="g124">
      <g  clip-path="url(#clipPath120)" id="g126">
       <g id="g128">
        <path fill="#909090" fill-rule="nonzero" d="m197.5,261.83331l11.5,4.66699l6,0l3,-12.5l19.5,-6.5l3.125,-9.375l8.375,-0.875l2.96901,-8.375l-2.21901,-7.875l-12.5,-0.75l-5.25,-12.25l-14.25,0l-5,-4.5l-3,0l-9.75,22.25l2.66699,4.91602l0.58301,20.83398l-5.75,10.33301z" id="path130"/>
       </g>
      </g>
     </g>
    </g>
   </g>
  </g>
  <g transform="matrix(1.25,0,0,-1.25,0,650) " id="paraguay">
   <g id="g134" clip-path="url(#clipPath136)">
    <g id="g140">
     <g id="g142"/>
     <g id="g148">
      <g  clip-path="url(#clipPath144)" id="g150">
       <g id="g152">
        <path fill="#909090" fill-rule="nonzero" d="m233.25,206.75l4.5,11.75l11.08301,0.83301l3.91699,-4.08301l0.41699,-6.75l10.16602,0l7.83398,-9.66699l-0.33398,-7.5l-5.58301,-7.83301l-10,0l-0.5,5.25l3.5,4.25l-9.75,6.75l-9.5,-0.91699l-5.75,7.91699z" id="path154"/>
       </g>
      </g>
     </g>
    </g>
   </g>
  </g>
  <g transform="matrix(1.25,0,0,-1.25,0,650) " id="g156">
   <g id="g158" clip-path="url(#clipPath160)">
    <g id="g164">
     <g id="g166"/>
     <g id="g172">
      <g  clip-path="url(#clipPath168)" id="g174">
       <g id="g176">
        <path fill="#909090" fill-rule="nonzero" d="m197.1667,374.16669l-6,-6.16699l0,-6.83301l-3.16699,0l-2.83301,3.66699l-2.66701,-3.83398l3,-9l18.66701,-6.83301l0,-21.66699l5.83301,-6.33301l5.834,0l6.5,7l-4.334,2l0,10.58301l9.66699,-4.91602l7,6.5l-3,7.33301l6,7.58301l-4.41701,3.25l-7.58299,10.33398l-10.83299,-2.5l-11.16701,2.66602l-6.5,7.16699z" id="path178"/>
       </g>
      </g>
     </g>
    </g>
   </g>
  </g>
  <g transform="matrix(1.25,0,0,-1.25,0,650) " id="colombia">
   <g id="g182" clip-path="url(#clipPath184)">
    <g id="g188">
     <g id="g190"/>
     <g id="g196">
      <g  clip-path="url(#clipPath192)" id="g198">
       <g id="g200">
        <path fill="#909090" fill-rule="nonzero" d="m191.125,376.66669l-11.79199,-14.5l4,-12l18.66699,-6.91699l0,-19.75l-8,0l-1,-11.16602l3.66699,-4.16699l-2.834,-12.66699l-3.16599,0l0,7l-11.334,0.66699l-6.33301,9.66699l-11.16699,1l-7.66602,8l6.66602,14.91602l-0.59901,14.88l3.76601,2.37l0.66699,5l20.83301,17.66699l5.625,0z" id="path202"/>
       </g>
      </g>
     </g>
    </g>
   </g>
  </g>
  <g transform="matrix(1.25,0,0,-1.25,0,650) " id="panama">
   <g id="g206" clip-path="url(#clipPath208)">
    <g id="g212">
     <g id="g214"/>
     <g id="g220">
      <g  clip-path="url(#clipPath216)" id="g222">
       <g id="g224">
        <path fill="#909090" fill-rule="nonzero" d="m154.1667,364.375l-9.54199,-6.125l-5.25002,2.375l-3.125,-8l11.927,-1.987l0.323,4.737l5.125,2.75l6.04201,-4.625l2.70799,2.125l0.875,4l-9.08299,4.75z" id="path226"/>
       </g>
      </g>
     </g>
    </g>
   </g>
  </g>
  <g transform="matrix(1.25,0,0,-1.25,0,650) " id="costarica">
   <g id="g230" clip-path="url(#clipPath232)">
    <g id="g236">
     <g id="g238"/>
     <g id="g244">
      <g  clip-path="url(#clipPath240)" id="g246">
       <g id="g248">
        <path fill="#909090" fill-rule="nonzero" d="m122,368.33331l11.25,-0.58301l1.375,-3.375l3.04199,-3.04199l-3,-7.33301l-12.66699,9.75l0,4.58301z" id="path250"/>
       </g>
      </g>
     </g>
    </g>
   </g>
  </g>
  <g transform="matrix(1.25,0,0,-1.25,0,650) " id="nicaragua">
   <g id="g254" clip-path="url(#clipPath256)">
    <g id="g260">
     <g id="g262"/>
     <g id="g268">
      <g  clip-path="url(#clipPath264)" id="g270">
       <g id="g272">
        <path fill="#909090" fill-rule="nonzero" d="m119,375.25l3.5,6.91699l6.5,5l8.5,0.5l0,-8.16699l-4.125,-9.625l-12.125,0.75l-2.25,4.625z" id="path274"/>
       </g>
      </g>
     </g>
    </g>
   </g>
  </g>
  <g transform="matrix(1.25,0,0,-1.25,0,650) " id="honduras">
   <g id="g278" clip-path="url(#clipPath280)">
    <g id="g284">
     <g id="g286"/>
     <g id="g292">
      <g  clip-path="url(#clipPath288)" id="g294">
       <g id="g296">
        <path fill="#909090" fill-rule="nonzero" d="m113,387.25l6.5,6.875l12,0l5.5,-4.875l-8.75,-0.5l-6.875,-5.5l-3,-6.58301l-1.625,0l0.375,7.45801l-4.125,2.375" id="path298"/>
       </g>
      </g>
     </g>
    </g>
   </g>
  </g>
  <g transform="matrix(1.25,0,0,-1.25,0,650) " id="el_salvador">
   <g id="g302" clip-path="url(#clipPath304)">
    <g id="g308">
     <g id="g310"/>
     <g id="g316">
      <g  clip-path="url(#clipPath312)" id="g318">
       <g id="g320">
        <path fill="#909090" fill-rule="nonzero" d="m108,381.375l0.324,0.41699l2.801,3.604l4.042,-2.06299l-0.417,-5.146" id="path322"/>
       </g>
      </g>
     </g>
    </g>
   </g>
  </g>
  <g transform="matrix(1.25,0,0,-1.25,0,650) " id="guatemala">
   <g id="g326" clip-path="url(#clipPath328)">
    <g id="g332">
     <g id="g334"/>
     <g id="g340">
      <g  clip-path="url(#clipPath336)" id="g342">
       <g id="g344">
        <path fill="#909090" fill-rule="nonzero" d="m97.625,388.625l6.375,6.125l0,3.125l-1.5,3.45801l4.333,2.66699l3.667,-0.83301l0.25,-6.54199l4.312,-0.625l1.438,-1.875l-10,-11.75l-8.875,6.25z" id="path346"/>
       </g>
      </g>
     </g>
    </g>
   </g>
  </g>
  <g transform="matrix(1.25,0,0,-1.25,0,650) " id="belice">
   <g id="g350" clip-path="url(#clipPath352)">
    <g id="g356">
     <g id="g358"/>
     <g id="g364">
      <g  clip-path="url(#clipPath360)" id="g366">
       <g id="g368">
        <path fill="#909090" fill-rule="nonzero" d="m118.1875,406.0625l-2.5,0l-3.5,-2.875l0,-5.31299l2.125,0l4.687,7.18799l-0.812,1z" id="path370"/>
       </g>
      </g>
     </g>
    </g>
   </g>
  </g>
  <g transform="matrix(1.25,0,0,-1.25,0,650) " id="g372">
   <g id="g374" clip-path="url(#clipPath376)">
    <g id="g380">
     <g id="g382"/>
     <g id="g388">
      <g  clip-path="url(#clipPath384)" id="g390">
       <g id="g392">
        <path fill="#909090" fill-rule="nonzero" d="m127.1667,420.83331l-8.167,-13.33301l-5.166,0l-2.459,-2.16699l-1.708,0l-2.604,0.729l-7.063,-4.09399l2.667,-5.63501l-6.667,-6l-10.166,7.54199l-7.667,-4.375l-16.833,8.46802l-17.667,18.86499l0,14.83301l-20.667,39.16699l1.334,9.83301l-1.334,3.33398l-3.833,0l-1.167,-10.83398l6,-13.66602l3,-24.33398l-9,7.5l0,9.83398l-7,5.66602l0,4.66699l2.667,1.83301l0,2.33398l-6.667,19.5l0,2.61002l13.167,0l10.667,-9.11002l25.666,-2.66699l1.334,-12.33301l5.333,-2.83398l5.667,6l4.333,-2.16602l3.167,-18.5l6.833,-4l-3.667,-17.83398l4,-15.16602l11.334,-5l8.666,1.33301l3.563,10.33301l14.937,3.83398l5.167,-4.16699z" id="path394"/>
       </g>
      </g>
     </g>
    </g>
   </g>
  </g>
  <g transform="matrix(1.25,0,0,-1.25,0,650) " id="g396">
   <g id="g398" clip-path="url(#clipPath400)">
    <g id="g404">
     <g id="g406"/>
     <g id="g412">
      <g  clip-path="url(#clipPath408)" id="g414">
       <g id="g416">
        <path fill="#909090" fill-rule="nonzero" d="m144.8333,308.33331l0,6.66699l7.16701,5.25l9.49998,-9.25l5.83301,0l0,-4.83398l-11.25,-14l-8.91701,1.33398l-1.33299,5.83301l2.06599,2.33801l-4.233,3.70398l1.16701,2.95801z" id="path418"/>
       </g>
      </g>
     </g>
    </g>
   </g>
  </g>
  <g transform="matrix(1.25,0,0,-1.25,0,650) " id="peru">
   <g id="g422" clip-path="url(#clipPath424)">
    <g id="g428">
     <g id="g430"/>
     <g id="g436">
      <g  clip-path="url(#clipPath432)" id="g438">
       <g id="g440">
        <path fill="#909090" fill-rule="nonzero" d="m169.25,310.75l2.25,0l7.5,-10.125l9.5,0l0,-5.125l-10.41699,-7.75l-1.83301,-13.375l8.125,-8.375l6.95801,2l9.29199,-16.75l-0.625,-20l-5,-6.875l-25.75,16.75l-27.24699,48.63599l-0.50301,5.73901l2.75,2l0.25,-5.33301l12.83301,-2.66699l11.54199,15l0.375,6.25z" id="path442"/>
       </g>
      </g>
     </g>
    </g>
   </g>
  </g>
  <g transform="matrix(1.25,0,0,-1.25,0,650) " id="chile">
   <g id="g446" clip-path="url(#clipPath448)">
    <g id="g452">
     <g id="g454"/>
     <g id="g460">
      <g  clip-path="url(#clipPath456)" id="g462">
       <g id="g464">
        <path fill="#909090" fill-rule="nonzero" d="m198.25,225.125l-2,-1.875l3,-60l2,-32.375l0.625,-24.75l7.875,-4.875l-0.75,-21.75l-5,-2.125l-1,-3.875l4.5,-3l4.75,-1.75l0,-7.75l-4.375,-5.125l8.625,-12.75l5.5,-7.5l5,-2.875l4.625,-2.375l0,6.375l4.875,4.875l-9.125,0.375l-7.625,7.625l-1,29.875l-11.25,42.5l2.875,19.25l-6.875,20.5l3.875,30.375l4.875,5.625l-0.625,3.875l-3.625,0.5l-9.75,23z" id="path466"/>
       </g>
      </g>
     </g>
    </g>
    <g id="g468">
     <g id="g470"/>
     <g id="g476">
      <g  clip-path="url(#clipPath472)" id="g478">
       <g id="g480">
        <path fill="#909090" fill-rule="nonzero" d="m200.5,99.125l2.875,2.75l2.625,-1.375l-0.75,-8l-2.75,0l-2,2.625l0,4z" id="path482"/>
       </g>
      </g>
     </g>
    </g>
   </g>
  </g>
  <g transform="matrix(1.25,0,0,-1.25,0,650) " id="g484">
   <g id="g486" clip-path="url(#clipPath488)">
    <g id="g492">
     <g id="g494"/>
     <g id="g500">
      <g  clip-path="url(#clipPath496)" id="g502">
       <g id="g504">
        <path fill="#909090" fill-rule="nonzero" d="m137.5,427.6875l9.875,3.68799l7.25,0l25.82199,-14.534l-1.875,-3.43799l-5.57199,-2.52802l-2.812,0l-5.256,1.73203l-0.541,3.42798l2.60899,1.27701l-9.375,7.43701l-4.437,0.125l-2.313,1.37598l-0.75,0.81201l-1.562,-0.06201l-1.438,-1.68799l-8.813,0l-1.187,1.31299l0.375,1.06201z" id="path506"/>
       </g>
      </g>
     </g>
    </g>
    <g id="g508">
     <g id="g510"/>
     <g id="g516">
      <g  clip-path="url(#clipPath512)" id="g518">
       <g id="g520">
        <path fill="#909090" fill-rule="nonzero" d="m182.7338,411.6647l2.76601,3.20999l7.375,-1l6.5,-3l6.375,-4.81198l-2.125,-3.43802l-1.625,1l-4.75,0.125l-1,-1.125l-2.25,0l-0.875,-2.25l-2.375,0.875l0.125,1.875l-7.5,-0.25l-1.125,-0.90601l-1.802,0l-1.698,2.65601l0.875,2.375l6.26799,0.07401l-0.01799,2.55099l-3.14101,2.04001z" id="path522"/>
       </g>
      </g>
     </g>
    </g>
    <g id="g524">
     <g id="g526"/>
     <g id="g532">
      <g  clip-path="url(#clipPath528)" id="g534">
       <g id="g536">
        <path fill="#909090" fill-rule="nonzero" d="m213.25,407l-2.625,0l-1.5,-2.375l2.625,-2.65601l5,0l0.875,2.65601l-1.25,1.43799l-3.125,0.93701z" id="path538"/>
       </g>
      </g>
     </g>
    </g>
    <g id="g540">
     <g id="g542"/>
     <g id="g548">
      <g  clip-path="url(#clipPath544)" id="g550">
       <g id="g552">
        <path fill="#909090" fill-rule="nonzero" d="m161.5,403.75l-1.375,0.875l0,2.375l3.875,0l0.5,0.625l3.375,0l0.5,-1.56201l1.375,-0.37598l0,-1.203l-1.125,-0.73401l-1.125,-1.78101l-4.25,0.65601l-1.75,1.125z" id="path554"/>
       </g>
      </g>
     </g>
    </g>
    <g id="g556">
     <g id="g558"/>
     <g id="g564">
      <g  clip-path="url(#clipPath560)" id="g566">
       <g id="g568">
        <path fill="#909090" fill-rule="nonzero" d="m166.875,440.5l-1.937,-0.5l0,-3.625l1.937,-2l1.5,0l1.375,2l-0.75,2.125l-2.125,2z" id="path570"/>
       </g>
      </g>
     </g>
    </g>
    <g id="g572">
     <g id="g574"/>
     <g id="g580">
      <g  clip-path="url(#clipPath576)" id="g582">
       <g id="g584">
        <path fill="#909090" fill-rule="nonzero" d="m168.5,449l2.5,2.25l2.625,-1.125l2.875,-2.5l-1.5,-3.5l-2.5,0l-1.125,1.625l0.375,1.93799l-2.625,0l-0.625,1.31201z" id="path586"/>
       </g>
      </g>
     </g>
    </g>
    <g id="g588">
     <g id="g590"/>
     <g id="g596">
      <g  clip-path="url(#clipPath592)" id="g598">
       <g id="g600">
        <path fill="#909090" fill-rule="nonzero" d="m173.5,441.72171l3,0.52802l0,-2.37503l1.58301,-1.56198l1.41699,-1.43802l0,-2.49997l-2.25,0l-2.25,1.24997l-1.5,1.81302l-0.536,1.37399l0.536,2.91z" id="path602"/>
       </g>
      </g>
     </g>
    </g>
    <g id="g604">
     <g id="g606"/>
     <g id="g612">
      <g  clip-path="url(#clipPath608)" id="g614">
       <g id="g616">
        <path fill="#909090" fill-rule="nonzero" d="m168.5,432.25l1.25,1.125l1.25,1l1.964,-1.06299l1.161,-1.93701l-1.161,-1.5l-0.464,-1.625l-2.125,0.75l-0.625,1.375l-1.25,1.875z" id="path618"/>
       </g>
      </g>
     </g>
    </g>
    <g id="g620">
     <g id="g622"/>
     <g id="g628">
      <g  clip-path="url(#clipPath624)" id="g630">
       <g id="g632">
        <path fill="#909090" fill-rule="nonzero" d="m177.25,431.3125l4.25,0.06201l0,-2.375l1.25,-0.75l-1.25,-1.49902l-1.5,-0.5l-1.91701,1.99902l-0.83299,1.12598l0,1.93701z" id="path634"/>
       </g>
      </g>
     </g>
    </g>
    <g id="g636">
     <g id="g638"/>
     <g id="g644">
      <g  clip-path="url(#clipPath640)" id="g646">
       <g id="g648">
        <path fill="#909090" fill-rule="nonzero" d="m275.5,335.25l-5.75,-10.25l-5.875,2l0,9.25l3.125,5.75l8.5,-6.75z" id="path650"/>
       </g>
      </g>
     </g>
    </g>
    <g id="g652">
     <g id="g654"/>
     <g id="g660">
      <g  clip-path="url(#clipPath656)" id="g662">
       <g id="g664">
        <path fill="#909090" fill-rule="nonzero" d="m265.25,343.25l-3.75,-6.25l0,-10.5l-9,-3l-0.16699,5.5l-4.33301,4.83301l-0.33301,4.16699l4.5,4.5l2.58301,-2.75l5.25,3.5l5.25,0z" id="path666"/>
       </g>
      </g>
     </g>
    </g>
    <g id="g668">
     <g id="g670"/>
     <g id="g676">
      <g  clip-path="url(#clipPath672)" id="g678">
       <g id="g680">
        <path fill="#909090" fill-rule="nonzero" d="m250.75,343.25l-4.75,-4.75l0,-5.125l4.33299,-5.20801l-0.16599,-5l-7.41701,-2.91699l-6,4.75l-0.25,12.66699l-2.83301,7.66602l5.66602,7.16699l11.41699,-9.25z" id="path682"/>
       </g>
      </g>
     </g>
    </g>
   </g>
  </g>
  <g transform="matrix(1.25,0,0,-1.25,0,650) " id="guatemala_point">
   <path fill="#444445" fill-rule="nonzero" d="m109.29932,390.99963c0,-1.32501 -1.07399,-2.39899 -2.399,-2.39899c-1.326,0 -2.39999,1.07397 -2.39999,2.39899c0,1.32501 1.074,2.39899 2.39999,2.39899c1.32501,0 2.399,-1.07397 2.399,-2.39899" id="path694"/>
  </g>
  <g transform="matrix(1.25,0,0,-1.25,0,650) " id="honduras_point">
   <path fill="#444445" fill-rule="nonzero" d="m122.3994,388c0,-1.32501 -1.074,-2.39899 -2.399,-2.39899c-1.326,0 -2.39999,1.07397 -2.39999,2.39899c0,1.32501 1.074,2.39899 2.39999,2.39899c1.325,0 2.399,-1.07397 2.399,-2.39899" id="path698"/>
  </g>
  <g transform="matrix(1.25,0,0,-1.25,0,650) " id="nicaragua_point">
   <path fill="#444445" fill-rule="nonzero" d="m130.3994,378c0,-1.32501 -1.07401,-2.39899 -2.399,-2.39899c-1.326,0 -2.39999,1.07397 -2.39999,2.39899c0,1.32501 1.074,2.39899 2.39999,2.39899c1.325,0 2.399,-1.07397 2.399,-2.39899" id="path702"/>
  </g>
  <g transform="matrix(1.25,0,0,-1.25,0,650) " id="costarica_point">
   <path fill="#444445" fill-rule="nonzero" d="m132.8994,362c0,-1.32501 -1.07401,-2.39899 -2.399,-2.39899c-1.326,0 -2.39999,1.07397 -2.39999,2.39899c0,1.32501 1.07399,2.39899 2.39999,2.39899c1.325,0 2.399,-1.07397 2.399,-2.39899" id="path706"/>
  </g>
  <g transform="matrix(1.25,0,0,-1.25,0,650) " id="panama_point">
   <path fill="#444445" fill-rule="nonzero" d="m147.8994,355.10059c0,-1.32501 -1.07401,-2.39899 -2.399,-2.39899c-1.326,0 -2.39999,1.07397 -2.39999,2.39899c0,1.32501 1.07399,2.39899 2.39999,2.39899c1.325,0 2.399,-1.07397 2.399,-2.39899" id="path710"/>
  </g>
  <g transform="matrix(1.25,0,0,-1.25,0,650) " id="colombia_point">
   <path fill="#444445" fill-rule="nonzero" d="m181.3994,332c0,-1.32501 -1.07401,-2.39899 -2.399,-2.39899c-1.326,0 -2.39999,1.07397 -2.39999,2.39899c0,1.32501 1.07399,2.39899 2.39999,2.39899c1.325,0 2.399,-1.07397 2.399,-2.39899" id="path714"/>
  </g>
  <g transform="matrix(1.25,0,0,-1.25,0,650) " id="peru_point">
   <path fill="#444445" fill-rule="nonzero" d="m174.3994,264c0,-1.32501 -1.07401,-2.39899 -2.399,-2.39899c-1.326,0 -2.39999,1.07397 -2.39999,2.39899c0,1.32501 1.07399,2.39899 2.39999,2.39899c1.325,0 2.399,-1.07397 2.399,-2.39899" id="path718"/>
  </g>
  <g transform="matrix(1.25,0,0,-1.25,0,650) " id="bolivia_point">
   <path fill="#444445" fill-rule="nonzero" d="m222.3994,231c0,-1.325 -1.07401,-2.399 -2.399,-2.399c-1.326,0 -2.39999,1.07401 -2.39999,2.399c0,1.325 1.07399,2.399 2.39999,2.399c1.325,0 2.399,-1.07401 2.399,-2.399" id="path722"/>
  </g>
  <g transform="matrix(1.25,0,0,-1.25,0,650) " id="paraguay_point">
   <path fill="#444445" fill-rule="nonzero" d="m253.3994,204.6562c0,-1.325 -1.07401,-2.399 -2.399,-2.399c-1.326,0 -2.39999,1.07401 -2.39999,2.399c0,1.325 1.07399,2.399 2.39999,2.399c1.325,0 2.399,-1.07401 2.399,-2.399" id="path726"/>
  </g>
  <g transform="matrix(1.25,0,0,-1.25,0,650) " id="brasil_point">
   <path fill="#444445" fill-rule="nonzero" d="m291.89941,237c0,-1.325 -1.07401,-2.399 -2.39899,-2.399c-1.32602,0 -2.40002,1.07401 -2.40002,2.399c0,1.325 1.07401,2.399 2.40002,2.399c1.32498,0 2.39899,-1.07401 2.39899,-2.399" id="path730"/>
  </g>
  <g transform="matrix(1.25,0,0,-1.25,0,650) " id="chile_point">
   <path fill="#444445" fill-rule="nonzero" d="m207.3994,142.6562c0,-1.325 -1.07401,-2.399 -2.399,-2.399c-1.326,0 -2.39999,1.07401 -2.39999,2.399c0,1.325 1.07399,2.399 2.39999,2.399c1.325,0 2.399,-1.07401 2.399,-2.399" id="path734"/>
  </g>
  <g transform="matrix(1.25,0,0,-1.25,0,650) " id="belice_point">
   <path fill="#444445" fill-rule="nonzero" d="m117.3994,402.5c0,-1.32501 -1.074,-2.39899 -2.399,-2.39899c-1.326,0 -2.39999,1.07397 -2.39999,2.39899c0,1.32501 1.074,2.39899 2.39999,2.39899c1.325,0 2.399,-1.07397 2.399,-2.39899" id="path738"/>
  </g>
  <g transform="matrix(1.25,0,0,-1.25,0,650) " id="el_salvador_point">
   <path fill="#444445" fill-rule="nonzero" d="m114.8994,383c0,-1.32501 -1.074,-2.39899 -2.399,-2.39899c-1.326,0 -2.39999,1.07397 -2.39999,2.39899c0,1.32501 1.074,2.39899 2.39999,2.39899c1.325,0 2.399,-1.07397 2.399,-2.39899" id="svg_1"/>
  </g>
 </g>
</svg>